<svg xmlns="http://www.w3.org/2000/svg" viewBox="0 0 100 100" width="100" height="100">
  <!-- Background circle with gradient -->
  <defs>
    <linearGradient id="bgGradient" x1="0%" y1="0%" x2="100%" y2="100%">
      <stop offset="0%" stop-color="#1a365d" />
      <stop offset="100%" stop-color="#2c5282" />
    </linearGradient>
    <linearGradient id="sunGradient" x1="0%" y1="0%" x2="100%" y2="100%">
      <stop offset="0%" stop-color="#fbbf24" />
      <stop offset="100%" stop-color="#f59e0b" />
    </linearGradient>
    <linearGradient id="cloudGradient" x1="0%" y1="0%" x2="100%" y2="100%">
      <stop offset="0%" stop-color="#f8fafc" />
      <stop offset="100%" stop-color="#e2e8f0" />
    </linearGradient>
    <linearGradient id="rainGradient" x1="0%" y1="0%" x2="100%" y2="100%">
      <stop offset="0%" stop-color="#93c5fd" />
      <stop offset="100%" stop-color="#3b82f6" />
    </linearGradient>
  </defs>
  
  <!-- Main circle background -->
  <circle cx="50" cy="50" r="48" fill="url(#bgGradient)" />
  
  <!-- Sun -->
  <circle cx="35" cy="40" r="15" fill="url(#sunGradient)" />
  <g>
    <line x1="35" y1="20" x2="35" y2="15" stroke="#fbbf24" stroke-width="2" stroke-linecap="round" />
    <line x1="35" y1="65" x2="35" y2="60" stroke="#fbbf24" stroke-width="2" stroke-linecap="round" />
    <line x1="15" y1="40" x2="20" y2="40" stroke="#fbbf24" stroke-width="2" stroke-linecap="round" />
    <line x1="50" y1="40" x2="55" y2="40" stroke="#fbbf24" stroke-width="2" stroke-linecap="round" />
    <line x1="21" y1="26" x2="25" y2="30" stroke="#fbbf24" stroke-width="2" stroke-linecap="round" />
    <line x1="45" y1="50" x2="49" y2="54" stroke="#fbbf24" stroke-width="2" stroke-linecap="round" />
    <line x1="21" y1="54" x2="25" y2="50" stroke="#fbbf24" stroke-width="2" stroke-linecap="round" />
    <line x1="45" y1="30" x2="49" y2="26" stroke="#fbbf24" stroke-width="2" stroke-linecap="round" />
  </g>
  
  <!-- Cloud -->
  <path d="M75 45 C75 38 69 33 62 33 C58 33 55 35 53 38 C51 33 46 30 40 30 C31 30 25 36 25 45 C25 54 31 60 40 60 H62 C69 60 75 54 75 45Z" fill="url(#cloudGradient)" />
  
  <!-- Rain drops -->
  <g>
    <path d="M45 65 L45 75" stroke="url(#rainGradient)" stroke-width="2" stroke-linecap="round" />
    <path d="M55 65 L55 75" stroke="url(#rainGradient)" stroke-width="2" stroke-linecap="round" />
    <path d="M65 65 L65 75" stroke="url(#rainGradient)" stroke-width="2" stroke-linecap="round" />
  </g>
  
  <!-- Calendar icon to represent planning -->
  <rect x="70" y="40" width="15" height="15" rx="2" fill="#f8fafc" stroke="#3b82f6" stroke-width="1" />
  <line x1="70" y1="45" x2="85" y2="45" stroke="#3b82f6" stroke-width="1" />
  <line x1="75" y1="40" x2="75" y2="55" stroke="#3b82f6" stroke-width="1" />
  <line x1="80" y1="40" x2="80" y2="55" stroke="#3b82f6" stroke-width="1" />
</svg>